<svg xmlns="http://www.w3.org/2000/svg" viewBox="0 0 100 100" fill="none">
  <defs>
    <!-- Top violet/purple gradient -->
    <linearGradient id="violet-grad" x1="36" y1="20" x2="80" y2="40" gradientUnits="userSpaceOnUse">
      <stop offset="0%" stop-color="#4A15FF" />
      <stop offset="100%" stop-color="#B625FF" />
    </linearGradient>

    <!-- Middle pink gradient -->
    <linearGradient id="pink-grad" x1="38" y1="44" x2="70" y2="58" gradientUnits="userSpaceOnUse">
      <stop offset="0%" stop-color="#FF2A7A" />
      <stop offset="100%" stop-color="#9E1FFF" />
    </linearGradient>

    <!-- Bottom cyan/blue gradient -->
    <linearGradient id="blue-grad" x1="28" y1="95" x2="48" y2="55" gradientUnits="userSpaceOnUse">
      <stop offset="0%" stop-color="#00F0FF" />
      <stop offset="100%" stop-color="#0066FF" />
    </linearGradient>
  </defs>

  <rect width="100" height="100" rx="20" fill="#06060e"/>

  <g transform="translate(4, 2) scale(0.92)">
    <!-- Top Purple/Violet Ribbon of F -->
    <path
      d="M 36,60 C 36,32 50,20 80,20 C 86,20 86,34 80,34 C 55,34 48,45 48,60 Z"
      fill="url(#violet-grad)"
    />

    <!-- Middle Pink Ribbon of F -->
    <path
      d="M 38,70 C 38,52 46,44 70,44 C 76,44 76,58 70,58 C 50,58 48,64 48,70 Z"
      fill="url(#pink-grad)"
    />

    <!-- Bottom Blue Stem of F (curves down and to the left) -->
    <path
      d="M 48,55 C 48,75 42,95 28,95 C 22,95 22,81 28,81 C 36,81 36,70 36,55 Z"
      fill="url(#blue-grad)"
    />
  </g>
</svg>